{
  "accessors": [
    {
      "bufferView": 2,
      "componentType": 5126,
      "count": 5382,
      "max": [
        4.029252529144287,
        4.3230881690979,
        16.602510452270508
      ],
      "min": [
        -3.9652013778686523,
        -4.850384712219238,
        -0.21666240692138672
      ],
      "type": "VEC3"
    },
    {
      "bufferView": 2,
      "byteOffset": 64584,
      "componentType": 5126,
      "count": 5382,
      "max": [
        1.0,
        1.0,
        1.0
      ],
      "min": [
        -1.0,
        -1.0,
        -1.0
      ],
      "type": "VEC3"
    },
    {
      "bufferView": 1,
      "componentType": 5126,
      "count": 5382,
      "max": [
        0.7245185971260071,
        0.975055456161499
      ],
      "min": [
        0.01649506390094757,
        0.09794242680072784
      ],
      "type": "VEC2"
    },
    {
      "bufferView": 0,
      "componentType": 5125,
      "count": 10083,
      "type": "SCALAR"
    },
    {
      "bufferView": 2,
      "byteOffset": 129168,
      "componentType": 5126,
      "count": 9824,
      "max": [
        4.040310859680176,
        4.334849834442139,
        17.768308639526367
      ],
      "min": [
        -3.9748172760009766,
        -4.858944892883301,
        -0.14307498931884766
      ],
      "type": "VEC3"
    },
    {
      "bufferView": 2,
      "byteOffset": 247056,
      "componentType": 5126,
      "count": 9824,
      "max": [
        1.0,
        1.0,
        1.0
      ],
      "min": [
        -1.0,
        -1.0,
        -1.0
      ],
      "type": "VEC3"
    },
    {
      "bufferView": 1,
      "byteOffset": 43056,
      "componentType": 5126,
      "count": 9824,
      "max": [
        0.979965329170227,
        0.9896297454833984
      ],
      "min": [
        0.2863914370536804,
        0.09859989583492279
      ],
      "type": "VEC2"
    },
    {
      "bufferView": 0,
      "byteOffset": 40332,
      "componentType": 5125,
      "count": 13932,
      "type": "SCALAR"
    },
    {
      "bufferView": 2,
      "byteOffset": 364944,
      "componentType": 5126,
      "count": 491,
      "max": [
        0.8008157014846802,
        0.06001091003417969,
        0.6999988555908203
      ],
      "min": [
        0.0,
        -0.060011863708496094,
        -0.7000007629394531
      ],
      "type": "VEC3"
    },
    {
      "bufferView": 2,
      "byteOffset": 370836,
      "componentType": 5126,
      "count": 491,
      "max": [
        1.0,
        1.0,
        1.0
      ],
      "min": [
        -1.0,
        -1.0,
        -1.0
      ],
      "type": "VEC3"
    },
    {
      "bufferView": 1,
      "byteOffset": 121648,
      "componentType": 5126,
      "count": 491,
      "max": [
        0.44352298974990845,
        0.24808524549007416
      ],
      "min": [
        0.04549300670623779,
        0.014132514595985413
      ],
      "type": "VEC2"
    },
    {
      "bufferView": 0,
      "byteOffset": 96060,
      "componentType": 5125,
      "count": 1497,
      "type": "SCALAR"
    }
  ],
  "asset": {
    "extras": {
      "author": "AspectStudios (https://sketchfab.com/AspectStudio)",
      "license": "CC-BY-4.0 (http://creativecommons.org/licenses/by/4.0/)",
      "source": "https://sketchfab.com/3d-models/fire-tower-ce78ac1cf4df4246bace6900c3999840",
      "title": "Fire Tower"
    },
    "generator": "Sketchfab-17.8.0",
    "version": "2.0"
  },
  "bufferViews": [
    {
      "buffer": 0,
      "byteLength": 102048,
      "name": "floatBufferViews",
      "target": 34963
    },
    {
      "buffer": 0,
      "byteLength": 125576,
      "byteOffset": 102048,
      "byteStride": 8,
      "name": "floatBufferViews",
      "target": 34962
    },
    {
      "buffer": 0,
      "byteLength": 376728,
      "byteOffset": 227624,
      "byteStride": 12,
      "name": "floatBufferViews",
      "target": 34962
    }
  ],
  "buffers": [
    {
      "byteLength": 604352,
      "uri": "scene.bin"
    }
  ],
  "extensionsUsed": [
    "KHR_materials_specular"
  ],
  "materials": [
    {
      "doubleSided": true,
      "extensions": {
        "KHR_materials_specular": {
          "specularColorFactor": [
            1.0,
            1.0,
            1.0
          ],
          "specularFactor": 0.0
        }
      },
      "name": "WatchTower.001",
      "pbrMetallicRoughness": {
        "baseColorFactor": [
          0.30541,
          0.279322,
          0.30541,
          1.0
        ],
        "metallicFactor": 0.0
      }
    },
    {
      "doubleSided": true,
      "extensions": {
        "KHR_materials_specular": {
          "specularColorFactor": [
            1.0,
            1.0,
            1.0
          ],
          "specularFactor": 0.0
        }
      },
      "name": "WatchTower",
      "pbrMetallicRoughness": {
        "baseColorFactor": [
          0.14099099999999995,
          0.03285810000000001,
          0.0,
          1.0
        ],
        "metallicFactor": 0.0
      }
    }
  ],
  "meshes": [
    {
      "name": "WatchTower_WatchTower.001_0",
      "primitives": [
        {
          "attributes": {
            "NORMAL": 1,
            "POSITION": 0,
            "TEXCOORD_0": 2
          },
          "indices": 3,
          "material": 0,
          "mode": 4
        }
      ]
    },
    {
      "name": "WatchTower_WatchTower_0",
      "primitives": [
        {
          "attributes": {
            "NORMAL": 5,
            "POSITION": 4,
            "TEXCOORD_0": 6
          },
          "indices": 7,
          "material": 1,
          "mode": 4
        }
      ]
    },
    {
      "name": "Door_WatchTower_0",
      "primitives": [
        {
          "attributes": {
            "NORMAL": 9,
            "POSITION": 8,
            "TEXCOORD_0": 10
          },
          "indices": 11,
          "material": 1,
          "mode": 4
        }
      ]
    }
  ],
  "nodes": [
    {
      "children": [
        1
      ],
      "matrix": [
        1.0,
        0.0,
        0.0,
        0.0,
        0.0,
        2.220446049250313e-16,
        -1.0,
        0.0,
        0.0,
        1.0,
        2.220446049250313e-16,
        0.0,
        0.0,
        0.0,
        0.0,
        1.0
      ],
      "name": "Sketchfab_model"
    },
    {
      "children": [
        2
      ],
      "matrix": [
        0.009999999776482582,
        0.0,
        0.0,
        0.0,
        0.0,
        0.0,
        0.009999999776482582,
        0.0,
        0.0,
        -0.009999999776482582,
        0.0,
        0.0,
        0.0,
        0.0,
        0.0,
        1.0
      ],
      "name": "4c1dbb1eccc24110932205addd9c2b5c.fbx"
    },
    {
      "children": [
        3
      ],
      "name": "RootNode"
    },
    {
      "children": [
        4,
        5,
        6
      ],
      "matrix": [
        100.0,
        0.0,
        0.0,
        0.0,
        0.0,
        -1.629206793918314e-05,
        -99.99999999999868,
        0.0,
        0.0,
        99.99999999999868,
        -1.629206793918314e-05,
        0.0,
        0.0,
        0.0,
        0.0,
        1.0
      ],
      "name": "WatchTower"
    },
    {
      "mesh": 0,
      "name": "WatchTower_WatchTower.001_0"
    },
    {
      "mesh": 1,
      "name": "WatchTower_WatchTower_0"
    },
    {
      "children": [
        7
      ],
      "matrix": [
        1.0,
        0.0,
        0.0,
        0.0,
        0.0,
        1.0,
        -2.646977960169688e-23,
        0.0,
        0.0,
        2.646977960169688e-23,
        1.0,
        0.0,
        1.013196587562561,
        -2.223784923553467,
        15.13403606414795,
        1.0
      ],
      "name": "Door"
    },
    {
      "mesh": 2,
      "name": "Door_WatchTower_0"
    }
  ],
  "scene": 0,
  "scenes": [
    {
      "name": "Sketchfab_Scene",
      "nodes": [
        0
      ]
    }
  ]
}
