{
  "accessors": [
    {
      "bufferView": 2,
      "componentType": 5126,
      "count": 1613,
      "max": [
        81.5267105102539,
        92.91548919677734,
        120.77306365966797
      ],
      "min": [
        -82.36621856689453,
        -88.95010375976563,
        -126.37288665771484
      ],
      "type": "VEC3"
    },
    {
      "bufferView": 2,
      "byteOffset": 19356,
      "componentType": 5126,
      "count": 1613,
      "max": [
        0.997428297996521,
        0.999042272567749,
        0.9994059205055237
      ],
      "min": [
        -0.9970116019248962,
        -0.9998122453689575,
        -0.9987133145332336
      ],
      "type": "VEC3"
    },
    {
      "bufferView": 3,
      "componentType": 5126,
      "count": 1613,
      "max": [
        0.9999906420707703,
        0.997460663318634,
        0.9414771795272827,
        1.0
      ],
      "min": [
        -0.9998853802680969,
        -0.9889400005340576,
        -0.9401872158050537,
        1.0
      ],
      "type": "VEC4"
    },
    {
      "bufferView": 1,
      "componentType": 5126,
      "count": 1613,
      "max": [
        0.9946635961532593,
        0.8322543501853943
      ],
      "min": [
        0.0034775445237755775,
        0.004706680774688721
      ],
      "type": "VEC2"
    },
    {
      "bufferView": 1,
      "byteOffset": 12904,
      "componentType": 5126,
      "count": 1613,
      "max": [
        0.9946635961532593,
        0.8322543501853943
      ],
      "min": [
        0.0034775445237755775,
        0.004706680774688721
      ],
      "type": "VEC2"
    },
    {
      "bufferView": 1,
      "byteOffset": 25808,
      "componentType": 5126,
      "count": 1613,
      "max": [
        0.9946635961532593,
        0.8322543501853943
      ],
      "min": [
        0.0034775445237755775,
        0.004706680774688721
      ],
      "type": "VEC2"
    },
    {
      "bufferView": 0,
      "componentType": 5125,
      "count": 4668,
      "type": "SCALAR"
    },
    {
      "bufferView": 2,
      "byteOffset": 38712,
      "componentType": 5126,
      "count": 652,
      "max": [
        81.24774932861328,
        11.841675758361816,
        46.66363525390625
      ],
      "min": [
        -25.175594329833984,
        -56.607913970947266,
        -12.206025123596191
      ],
      "type": "VEC3"
    },
    {
      "bufferView": 2,
      "byteOffset": 46536,
      "componentType": 5126,
      "count": 652,
      "max": [
        0.9965947270393372,
        0.9997882843017578,
        0.9997843503952026
      ],
      "min": [
        -0.9998902678489685,
        -0.9998908638954163,
        -0.9997838139533997
      ],
      "type": "VEC3"
    },
    {
      "bufferView": 3,
      "byteOffset": 25808,
      "componentType": 5126,
      "count": 652,
      "max": [
        0.9997839331626892,
        0.9999991059303284,
        0.9997565746307373,
        1.0
      ],
      "min": [
        -0.9997809529304504,
        -0.9999997615814209,
        -0.9967109560966492,
        1.0
      ],
      "type": "VEC4"
    },
    {
      "bufferView": 1,
      "byteOffset": 38712,
      "componentType": 5126,
      "count": 652,
      "max": [
        0.8638964891433716,
        0.9831244349479675
      ],
      "min": [
        0.004315009340643883,
        0.4237934350967407
      ],
      "type": "VEC2"
    },
    {
      "bufferView": 1,
      "byteOffset": 43928,
      "componentType": 5126,
      "count": 652,
      "max": [
        0.8638964891433716,
        0.9831244349479675
      ],
      "min": [
        0.004315009340643883,
        0.4237934350967407
      ],
      "type": "VEC2"
    },
    {
      "bufferView": 1,
      "byteOffset": 49144,
      "componentType": 5126,
      "count": 652,
      "max": [
        0.8638964891433716,
        0.9831244349479675
      ],
      "min": [
        0.004315009340643883,
        0.4237934350967407
      ],
      "type": "VEC2"
    },
    {
      "bufferView": 0,
      "byteOffset": 18672,
      "componentType": 5125,
      "count": 1914,
      "type": "SCALAR"
    },
    {
      "bufferView": 2,
      "byteOffset": 54360,
      "componentType": 5126,
      "count": 694,
      "max": [
        97.08846282958984,
        2.527990181988571e-05,
        23.807514190673828
      ],
      "min": [
        -41.2919807434082,
        -207.68287658691406,
        -23.807514190673828
      ],
      "type": "VEC3"
    },
    {
      "bufferView": 2,
      "byteOffset": 62688,
      "componentType": 5126,
      "count": 694,
      "max": [
        1.0,
        1.0,
        1.0
      ],
      "min": [
        -1.0,
        -1.0,
        -1.0
      ],
      "type": "VEC3"
    },
    {
      "bufferView": 3,
      "byteOffset": 36240,
      "componentType": 5126,
      "count": 694,
      "max": [
        0.9951110482215881,
        1.0,
        0.9515247941017151,
        1.0
      ],
      "min": [
        -0.9999998211860657,
        -0.9462869763374329,
        -0.999982476234436,
        1.0
      ],
      "type": "VEC4"
    },
    {
      "bufferView": 1,
      "byteOffset": 54360,
      "componentType": 5126,
      "count": 694,
      "max": [
        0.9399644732475281,
        0.9711172580718994
      ],
      "min": [
        0.17277905344963074,
        0.7273461222648621
      ],
      "type": "VEC2"
    },
    {
      "bufferView": 1,
      "byteOffset": 59912,
      "componentType": 5126,
      "count": 694,
      "max": [
        0.9399644732475281,
        0.9711172580718994
      ],
      "min": [
        0.17277905344963074,
        0.7273461222648621
      ],
      "type": "VEC2"
    },
    {
      "bufferView": 1,
      "byteOffset": 65464,
      "componentType": 5126,
      "count": 694,
      "max": [
        0.9399644732475281,
        0.9711172580718994
      ],
      "min": [
        0.17277905344963074,
        0.7273461222648621
      ],
      "type": "VEC2"
    },
    {
      "bufferView": 0,
      "byteOffset": 26328,
      "componentType": 5125,
      "count": 1932,
      "type": "SCALAR"
    },
    {
      "bufferView": 2,
      "byteOffset": 71016,
      "componentType": 5126,
      "count": 544,
      "max": [
        -0.17080585658550262,
        2.365398406982422,
        20.55573272705078
      ],
      "min": [
        -0.4719419777393341,
        -2.043018102645874,
        -42.80585861206055
      ],
      "type": "VEC3"
    },
    {
      "bufferView": 2,
      "byteOffset": 77544,
      "componentType": 5126,
      "count": 544,
      "max": [
        1.0,
        1.0,
        0.9999995827674866
      ],
      "min": [
        -1.0,
        -1.0,
        -1.0
      ],
      "type": "VEC3"
    },
    {
      "bufferView": 3,
      "byteOffset": 47344,
      "componentType": 5126,
      "count": 544,
      "max": [
        0.9999712109565735,
        0.999919056892395,
        0.9999954700469971,
        1.0
      ],
      "min": [
        -0.9991418719291687,
        -0.9997457265853882,
        -0.9999839067459106,
        -1.0
      ],
      "type": "VEC4"
    },
    {
      "bufferView": 1,
      "byteOffset": 71016,
      "componentType": 5126,
      "count": 544,
      "max": [
        0.7063095569610596,
        0.840502142906189
      ],
      "min": [
        0.6907614469528198,
        0.8089432716369629
      ],
      "type": "VEC2"
    },
    {
      "bufferView": 1,
      "byteOffset": 75368,
      "componentType": 5126,
      "count": 544,
      "max": [
        0.7063095569610596,
        0.840502142906189
      ],
      "min": [
        0.6907614469528198,
        0.8089432716369629
      ],
      "type": "VEC2"
    },
    {
      "bufferView": 1,
      "byteOffset": 79720,
      "componentType": 5126,
      "count": 544,
      "max": [
        0.7063095569610596,
        0.840502142906189
      ],
      "min": [
        0.6907614469528198,
        0.8089432716369629
      ],
      "type": "VEC2"
    },
    {
      "bufferView": 0,
      "byteOffset": 34056,
      "componentType": 5125,
      "count": 828,
      "type": "SCALAR"
    },
    {
      "bufferView": 2,
      "byteOffset": 84072,
      "componentType": 5126,
      "count": 660,
      "max": [
        26.199996948242188,
        1.1412677764892578,
        26.199996948242188
      ],
      "min": [
        -26.199996948242188,
        -1.1412677764892578,
        -26.199996948242188
      ],
      "type": "VEC3"
    },
    {
      "bufferView": 2,
      "byteOffset": 91992,
      "componentType": 5126,
      "count": 660,
      "max": [
        0.9510570168495178,
        1.0,
        0.9510567784309387
      ],
      "min": [
        -0.9510570168495178,
        -1.0,
        -0.951057493686676
      ],
      "type": "VEC3"
    },
    {
      "bufferView": 3,
      "byteOffset": 56048,
      "componentType": 5126,
      "count": 660,
      "max": [
        0.9999487996101379,
        0.04673295095562935,
        0.9999487400054932,
        1.0
      ],
      "min": [
        -0.9999487400054932,
        -0.04673336073756218,
        -0.9995394945144653,
        1.0
      ],
      "type": "VEC4"
    },
    {
      "bufferView": 1,
      "byteOffset": 84072,
      "componentType": 5126,
      "count": 660,
      "max": [
        0.5086473822593689,
        0.7091878056526184
      ],
      "min": [
        0.47122663259506226,
        0.6318780779838562
      ],
      "type": "VEC2"
    },
    {
      "bufferView": 1,
      "byteOffset": 89352,
      "componentType": 5126,
      "count": 660,
      "max": [
        0.5086473822593689,
        0.7091878056526184
      ],
      "min": [
        0.47122663259506226,
        0.6318780779838562
      ],
      "type": "VEC2"
    },
    {
      "bufferView": 1,
      "byteOffset": 94632,
      "componentType": 5126,
      "count": 660,
      "max": [
        0.5086473822593689,
        0.7091878056526184
      ],
      "min": [
        0.47122663259506226,
        0.6318780779838562
      ],
      "type": "VEC2"
    },
    {
      "bufferView": 0,
      "byteOffset": 37368,
      "componentType": 5125,
      "count": 1920,
      "type": "SCALAR"
    }
  ],
  "asset": {
    "extras": {
      "author": "Igrotok (https://sketchfab.com/Igrotok)",
      "license": "CC-BY-NC-SA-4.0 (http://creativecommons.org/licenses/by-nc-sa/4.0/)",
      "source": "https://sketchfab.com/3d-models/mk2-frag-grenade-3d44335a9ffa4484862191f2d1aa9d1e",
      "title": "MK2 frag grenade"
    },
    "generator": "Sketchfab-17.15.0",
    "version": "2.0"
  },
  "bufferViews": [
    {
      "buffer": 0,
      "byteLength": 45048,
      "name": "floatBufferViews",
      "target": 34963
    },
    {
      "buffer": 0,
      "byteLength": 99912,
      "byteOffset": 45048,
      "byteStride": 8,
      "name": "floatBufferViews",
      "target": 34962
    },
    {
      "buffer": 0,
      "byteLength": 99912,
      "byteOffset": 144960,
      "byteStride": 12,
      "name": "floatBufferViews",
      "target": 34962
    },
    {
      "buffer": 0,
      "byteLength": 66608,
      "byteOffset": 244872,
      "byteStride": 16,
      "name": "floatBufferViews",
      "target": 34962
    }
  ],
  "buffers": [
    {
      "byteLength": 311480,
      "uri": "scene.bin"
    }
  ],
  "images": [
    {
      "uri": "textures/Material_baseColor.png"
    },
    {
      "uri": "textures/Material_metallicRoughness.png"
    },
    {
      "uri": "textures/Material_normal.png"
    }
  ],
  "materials": [
    {
      "doubleSided": true,
      "name": "Material",
      "normalTexture": {
        "index": 2
      },
      "pbrMetallicRoughness": {
        "baseColorTexture": {
          "index": 0
        },
        "metallicRoughnessTexture": {
          "index": 1
        }
      }
    }
  ],
  "meshes": [
    {
      "name": "Plane.001_Material_0",
      "primitives": [
        {
          "attributes": {
            "NORMAL": 1,
            "POSITION": 0,
            "TANGENT": 2,
            "TEXCOORD_0": 3,
            "TEXCOORD_1": 4,
            "TEXCOORD_2": 5
          },
          "indices": 6,
          "material": 0,
          "mode": 4
        }
      ]
    },
    {
      "name": "Plane.002_Material_0",
      "primitives": [
        {
          "attributes": {
            "NORMAL": 8,
            "POSITION": 7,
            "TANGENT": 9,
            "TEXCOORD_0": 10,
            "TEXCOORD_1": 11,
            "TEXCOORD_2": 12
          },
          "indices": 13,
          "material": 0,
          "mode": 4
        }
      ]
    },
    {
      "name": "Plane.003_Material_0",
      "primitives": [
        {
          "attributes": {
            "NORMAL": 15,
            "POSITION": 14,
            "TANGENT": 16,
            "TEXCOORD_0": 17,
            "TEXCOORD_1": 18,
            "TEXCOORD_2": 19
          },
          "indices": 20,
          "material": 0,
          "mode": 4
        }
      ]
    },
    {
      "name": "Plane.004_Material_0",
      "primitives": [
        {
          "attributes": {
            "NORMAL": 22,
            "POSITION": 21,
            "TANGENT": 23,
            "TEXCOORD_0": 24,
            "TEXCOORD_1": 25,
            "TEXCOORD_2": 26
          },
          "indices": 27,
          "material": 0,
          "mode": 4
        }
      ]
    },
    {
      "name": "Torus.002_Material_0",
      "primitives": [
        {
          "attributes": {
            "NORMAL": 29,
            "POSITION": 28,
            "TANGENT": 30,
            "TEXCOORD_0": 31,
            "TEXCOORD_1": 32,
            "TEXCOORD_2": 33
          },
          "indices": 34,
          "material": 0,
          "mode": 4
        }
      ]
    }
  ],
  "nodes": [
    {
      "children": [
        1
      ],
      "matrix": [
        1.0,
        0.0,
        0.0,
        0.0,
        0.0,
        2.220446049250313e-16,
        -1.0,
        0.0,
        0.0,
        1.0,
        2.220446049250313e-16,
        0.0,
        0.0,
        0.0,
        0.0,
        1.0
      ],
      "name": "Sketchfab_model"
    },
    {
      "children": [
        2
      ],
      "matrix": [
        0.009999999776482582,
        0.0,
        0.0,
        0.0,
        0.0,
        0.0,
        0.009999999776482582,
        0.0,
        0.0,
        -0.009999999776482582,
        0.0,
        0.0,
        0.0,
        0.0,
        0.0,
        1.0
      ],
      "name": "dfcd245f261b4beab66e5443779f5a8d.fbx"
    },
    {
      "children": [
        3,
        5,
        7,
        9,
        11
      ],
      "name": "RootNode"
    },
    {
      "children": [
        4
      ],
      "matrix": [
        0.11046176583010972,
        0.004021620995060612,
        -0.1459996658645581,
        0.0,
        0.12801869505642183,
        0.08545282703191712,
        0.0992113914282168,
        0.0,
        0.07030868404231719,
        -0.16191246184398547,
        0.04873484329198829,
        0.0,
        13.243715286254883,
        2145.250244140625,
        10.06727409362793,
        1.0
      ],
      "name": "Plane.001"
    },
    {
      "mesh": 0,
      "name": "Plane.001_Material_0"
    },
    {
      "children": [
        6
      ],
      "matrix": [
        0.1830434783100088,
        0.00380689027291834,
        0.0038039733069263827,
        0.0,
        -0.0038068794655105294,
        0.00010025451099107525,
        0.18308298843295862,
        0.0,
        0.0038039847421423717,
        -0.18308298820179655,
        0.00017935149046880127,
        0.0,
        10.915507316589355,
        2176.2158203125,
        14.1124267578125,
        1.0
      ],
      "name": "Plane.002"
    },
    {
      "mesh": 1,
      "name": "Plane.002_Material_0"
    },
    {
      "children": [
        8
      ],
      "matrix": [
        0.18312257528305054,
        0.0,
        0.0,
        0.0,
        0.0,
        0.1831225752830492,
        2.2186686107178164e-08,
        0.0,
        0.0,
        -2.2186686107178164e-08,
        0.1831225752830492,
        0.0,
        13.90080738067627,
        2178.22509765625,
        10.120287895202637,
        1.0
      ],
      "name": "Plane.003"
    },
    {
      "mesh": 2,
      "name": "Plane.003_Material_0"
    },
    {
      "children": [
        10
      ],
      "matrix": [
        0.1773075512537549,
        0.045781286778875684,
        0.0,
        0.0,
        -0.05488807830238077,
        0.21257748397998386,
        0.0,
        0.0,
        0.0,
        0.0,
        0.18312257528305054,
        0.0,
        21.548023223876953,
        2174.895263671875,
        11.441003799438477,
        1.0
      ],
      "name": "Plane.004"
    },
    {
      "mesh": 3,
      "name": "Plane.004_Material_0"
    },
    {
      "children": [
        12
      ],
      "matrix": [
        0.18312257528305054,
        0.0,
        0.0,
        0.0,
        0.0,
        0.038098598894562574,
        0.17911553349882234,
        0.0,
        0.0,
        -0.17911553349882234,
        0.038098598894562574,
        0.0,
        21.55808448791504,
        2170.2421875,
        15.888269424438477,
        1.0
      ],
      "name": "Torus.002"
    },
    {
      "mesh": 4,
      "name": "Torus.002_Material_0"
    }
  ],
  "samplers": [
    {
      "magFilter": 9729,
      "minFilter": 9987,
      "wrapS": 10497,
      "wrapT": 10497
    }
  ],
  "scene": 0,
  "scenes": [
    {
      "name": "Sketchfab_Scene",
      "nodes": [
        0
      ]
    }
  ],
  "textures": [
    {
      "sampler": 0,
      "source": 0
    },
    {
      "sampler": 0,
      "source": 1
    },
    {
      "sampler": 0,
      "source": 2
    }
  ]
}
